<?xml version="1.0" encoding="utf-8"?><svg width="178" height="176" viewBox="0 0 178 176" xmlns="http://www.w3.org/2000/svg" xmlns:xlink="http://www.w3.org/1999/xlink"><svg width="89" height="88" viewBox="-4 -4 89 88" id="icon_bag" xmlns="http://www.w3.org/2000/svg"><path fill="#EFEFEF" fill-rule="evenodd" d="M24.21 1.956v8.978h32.41V1.956h4v8.978h11.22a4.49 4.49 0 014.485 4.278l.005.212v58.362a4.49 4.49 0 01-4.278 4.485l-.212.005H8.99a4.49 4.49 0 01-4.484-4.279l-.005-.21V15.423a4.49 4.49 0 014.278-4.485l.211-.005h11.222V1.956h4zm30.106 31.888l-17.299 17.3-10.496-10.497-2.829 2.828L37.017 56.8v-.002l.001.002 20.127-20.127-2.829-2.829z"/></svg><svg width="89" height="88" viewBox="-4 -4 89 88" id="icon_bag2" x="89" xmlns="http://www.w3.org/2000/svg"><path fill="#EFEFEF" fill-rule="evenodd" d="M24.21 1.956v8.978h32.41V1.956h4v8.978h11.22a4.49 4.49 0 014.485 4.278l.005.212v58.362a4.49 4.49 0 01-4.278 4.485l-.212.005H8.99a4.49 4.49 0 01-4.484-4.279l-.005-.21V15.423a4.49 4.49 0 014.278-4.485l.211-.005h11.222V1.956h4zm30.106 31.888l-17.299 17.3-10.496-10.497-2.829 2.828L37.017 56.8v-.002l.001.002 20.127-20.127-2.829-2.829z"/></svg><svg width="88" height="88" viewBox="-4 -4 88 88" id="icon_point" y="88" xmlns="http://www.w3.org/2000/svg"><path fill="#EFEFEF" fill-rule="evenodd" d="M40 0c22.091 0 40 17.909 40 40S62.091 80 40 80 0 62.091 0 40 17.909 0 40 0zM26.964 21.32v37.363h9.531V47.372h3.872l.372-.003c9.261-.134 15.337-5.288 15.337-13.115 0-7.804-6.24-12.934-15.652-12.934zm14.214 8.449c2.89 0 4.792 1.815 4.792 4.49 0 2.805-1.903 4.669-4.792 4.669H36.5v-9.16z"/></svg></svg>